<svg width="24" height="24" viewBox="0 0 32 32" fill="rgb(102,102,102)" xmlns="http://www.w3.org/2000/svg"><path d="M24.0263 31.7308L31.1713 24.5944C31.4556 24.3101 31.6153 23.9248 31.6153 23.523C31.6153 23.1212 31.4556 22.7358 31.1713 22.4515L24.0263 15.3152L21.8808 17.4581L26.435 22.0068H5.73401V25.0392H26.435L21.8808 29.5878L24.0263 31.7308Z"></path><path d="M7.97348 0.5L0.828483 7.63634C0.5442 7.92063 0.384521 8.306 0.384521 8.7078C0.384521 9.1096 0.5442 9.49497 0.828483 9.77927L7.97348 16.9156L10.119 14.7727L5.56483 10.224H26.2658V7.19158H5.56483L10.119 2.64292L7.97348 0.5Z"></path></svg>