<svg width="24" viewBox="0 0 24 24" fill="rgb(102, 102, 102)" xmlns="http://www.w3.org/2000/svg"><path fill-rule="evenodd" clip-rule="evenodd" d="M12 0C5.38972 0 0 5.38972 0 12C1.33333e-07 18.6103 5.38972 24 12 24C18.6103 24 24 18.6103 24 12C24 5.38972 18.6103 0 12 0ZM11.2365 4.74948H13.0875V6.41563C14.2291 6.50819 15.3554 6.81643 16.2193 7.32552L15.2781 9.59323C14.2445 9.03786 13.2265 8.76042 12.2854 8.76042C11.005 8.76042 10.5422 9.19235 10.5422 9.73229C10.5422 11.383 16.6667 10.149 16.6667 14.1292C16.6667 15.7644 15.4941 17.1837 13.0875 17.5385V19.2505H11.2365V17.6C9.69376 17.492 8.2281 17.0447 7.33333 16.4276L8.33594 14.175C9.29241 14.8075 10.6499 15.2396 11.8995 15.2396C13.1645 15.2396 13.6583 14.8849 13.6583 14.3604C13.6583 12.648 7.51823 13.8975 7.51823 9.88646C7.51823 8.18949 8.73729 6.75489 11.2365 6.44635V4.74948Z"></path></svg>