<svg width="22" viewBox="0 0 20 20" fill="rgb(102,102,102)" xmlns="http://www.w3.org/2000/svg"><path d="M18.9771 7.85962H18.304C18.0668 7.85962 17.8584 7.70871 17.7866 7.48113C17.6524 7.06911 17.4847 6.66427 17.2883 6.2762C17.1805 6.063 17.2188 5.80908 17.3865 5.64139L17.8632 5.16469C18.2633 4.76464 18.2633 4.11546 17.8632 3.71781L16.2822 2.13678C15.8821 1.73673 15.233 1.73673 14.8353 2.13678L14.3586 2.61349C14.1909 2.78117 13.9346 2.8195 13.7238 2.7117C13.3381 2.51288 12.9333 2.34519 12.5189 2.21344C12.2937 2.14157 12.1404 1.93317 12.1404 1.69601V1.02288C12.1404 0.45754 11.6804 0 11.1175 0H8.8825C8.31716 0 7.85962 0.459935 7.85962 1.02288V1.69601C7.85962 1.93317 7.70871 2.14157 7.48113 2.21344C7.06911 2.34759 6.66427 2.51527 6.2762 2.7117C6.063 2.8195 5.80908 2.78117 5.64139 2.61349L5.16469 2.13678C4.76464 1.73673 4.11546 1.73673 3.71781 2.13678L2.13678 3.71781C1.73673 4.11786 1.73673 4.76704 2.13678 5.16469L2.61349 5.64139C2.78117 5.80908 2.8195 6.0654 2.7117 6.2762C2.51288 6.66188 2.34519 7.06671 2.21344 7.48113C2.13918 7.70631 1.93317 7.85962 1.69601 7.85962H1.02288C0.45754 7.85962 0 8.31956 0 8.8825V11.1175C0 11.6828 0.459935 12.1404 1.02288 12.1404H1.69601C1.93317 12.1404 2.14157 12.2913 2.21344 12.5189C2.34759 12.9309 2.51527 13.3357 2.7117 13.7238C2.82189 13.937 2.78117 14.1909 2.61349 14.3586L2.13678 14.8353C1.73673 15.2354 1.73673 15.8845 2.13678 16.2822L3.71781 17.8632C4.11786 18.2633 4.76704 18.2633 5.16469 17.8632L5.64139 17.3865C5.80908 17.2188 6.0654 17.1805 6.2762 17.2883C6.66188 17.4871 7.06671 17.6548 7.48113 17.7866C7.70631 17.8584 7.85962 18.0668 7.85962 18.304V18.9771C7.85962 19.5425 8.31956 20 8.8825 20H11.1175C11.6828 20 12.1404 19.5401 12.1404 18.9771V18.304C12.1404 18.0668 12.2913 17.8584 12.5189 17.7866C12.9309 17.6524 13.3357 17.4847 13.7238 17.2883C13.937 17.1805 14.1909 17.2188 14.3586 17.3865L14.8353 17.8632C15.2354 18.2633 15.8845 18.2633 16.2822 17.8632L17.8632 16.2822C18.2633 15.8821 18.2633 15.233 17.8632 14.8353L17.3865 14.3586C17.2188 14.1909 17.1805 13.9346 17.2883 13.7238C17.4871 13.3381 17.6548 12.9333 17.7866 12.5189C17.8608 12.2937 18.0668 12.1404 18.304 12.1404H18.9771C19.5425 12.1404 20 11.6804 20 11.1175V8.8825C20 8.31956 19.5401 7.85962 18.9771 7.85962ZM9.9988 13.9897C7.79974 13.9897 6.0103 12.2003 6.0103 10.0012C6.0103 7.80213 7.79974 6.0127 9.9988 6.0127C12.1979 6.0127 13.9873 7.80213 13.9873 10.0012C13.9873 12.2003 12.1979 13.9897 9.9988 13.9897Z"></path></svg>