<svg width="17" viewBox="0 0 17 24" fill="rgb(102,102,102)" xmlns="http://www.w3.org/2000/svg"><path d="M16.2939 10.7632C16.2244 10.5991 16.0671 10.4943 15.8915 10.4943H10.4122L12.9691 0.568001C13.0228 0.364958 12.9376 0.152502 12.7594 0.0543417C12.5812 -0.0438182 12.3544 -0.00616764 12.2181 0.144434L1.08525 12.7493C0.967305 12.8797 0.938473 13.0747 1.00793 13.2279C1.07346 13.3947 1.23072 13.5009 1.40895 13.5009H6.88825L4.32617 23.4299C4.27113 23.6316 4.35894 23.8454 4.54241 23.9489C4.60663 23.9825 4.67608 24 4.74685 24C4.87135 24 4.99192 23.9476 5.07579 23.8534L16.2205 11.2473C16.3345 11.1141 16.362 10.9246 16.2939 10.7632Z"></path></svg>